<?xml version="1.0" standalone="no"?><!DOCTYPE svg PUBLIC "-//W3C//DTD SVG 1.1//EN" "http://www.w3.org/Graphics/SVG/1.1/DTD/svg11.dtd"><svg t="1554030938129" class="icon" style="" viewBox="0 0 1024 1024" version="1.1" xmlns="http://www.w3.org/2000/svg" p-id="3207" xmlns:xlink="http://www.w3.org/1999/xlink" width="200" height="200"><defs><style type="text/css"></style></defs><path d="M960 512a30.821 30.821 0 0 1-30.769 30.769H662.066l54.796 54.771a30.758 30.758 0 0 1-43.536 43.462L566.056 533.73a17.612 17.612 0 0 1-2.594-3.852l-1.21-2.124c-0.543-0.84-1.135-1.68-2.74-3.951-3.137-7.507-3.137-16.1 0.963-25.04a26.76 26.76 0 0 0 1.703-2.42l1.285-2.173a17.208 17.208 0 0 1 2.592-3.902L673.326 383a30.758 30.758 0 0 1 43.536 43.46l-54.796 54.772H929.23A30.821 30.821 0 0 1 960 512z m0 234.742V960H64V746.742z m-61.538 61.538H125.538v90.182h772.924zM94.77 542.769h267.165l-54.796 54.771a30.883 30.883 0 0 0 0 43.462 30.777 30.777 0 0 0 43.536 0l107.27-107.271a17.612 17.612 0 0 0 2.594-3.852l1.234-2.124a33.72 33.72 0 0 1 1.704-2.47c4.149-8.988 4.149-17.582 1.013-25.089-1.58-2.222-2.149-3.012-2.667-3.852l-1.285-2.173a18.074 18.074 0 0 0-2.568-3.902L350.674 383a30.733 30.733 0 0 0-43.536 0 30.883 30.883 0 0 0 0 43.46l54.796 54.772H94.77a30.769 30.769 0 0 0 0 61.538zM960 64v213.258H64V64z m-61.538 61.538H125.538v90.182h772.924z" p-id="3208"></path></svg>