<?xml version="1.0" standalone="no"?><!DOCTYPE svg PUBLIC "-//W3C//DTD SVG 1.1//EN" "http://www.w3.org/Graphics/SVG/1.1/DTD/svg11.dtd"><svg t="1554032179274" class="icon" style="" viewBox="0 0 1024 1024" version="1.1" xmlns="http://www.w3.org/2000/svg" p-id="6803" xmlns:xlink="http://www.w3.org/1999/xlink" width="200" height="200"><defs><style type="text/css"></style></defs><path d="M854.4 988.8H169.6c-38.4 0-67.2-32-67.2-67.2V102.4c0-38.4 32-67.2 67.2-67.2h512l236.8 240v646.4c3.2 38.4-28.8 67.2-64 67.2z m0-681.6L649.6 102.4H204.8c-19.2 0-35.2 16-35.2 35.2v752c0 19.2 16 35.2 35.2 35.2h614.4c19.2 0 35.2-16 35.2-35.2V307.2z" p-id="6804"></path><path d="M614.4 272V35.2h67.2V240c0 9.6 3.2 19.2 9.6 25.6 6.4 6.4 16 9.6 25.6 9.6h204.8v67.2h-240c-35.2 0-67.2-32-67.2-70.4zM272 272h204.8v67.2H272V272z m0 204.8h476.8V544H272v-67.2z m0 204.8h476.8v67.2H272v-67.2z" p-id="6805"></path></svg>