<?xml version="1.0" standalone="no"?><!DOCTYPE svg PUBLIC "-//W3C//DTD SVG 1.1//EN" "http://www.w3.org/Graphics/SVG/1.1/DTD/svg11.dtd"><svg t="1553756280507" class="icon" style="" viewBox="0 0 1024 1024" version="1.1" xmlns="http://www.w3.org/2000/svg" p-id="2427" xmlns:xlink="http://www.w3.org/1999/xlink" width="200" height="200"><defs><style type="text/css"></style></defs><path d="M592.448 921.6l-7.328 29.248H212.096l7.328-29.248h21.952c29.248 0 51.2-7.328 65.824-14.624 21.952-7.328 29.248-21.952 36.576-36.576s14.624-43.872 29.248-80.448l168.224-555.872c14.624-43.872 21.952-73.152 21.952-80.448 0-29.248-29.248-43.872-80.448-43.872H460.8l7.328-36.576h343.776l-7.328 29.248h-14.624c-21.952 0-36.576 7.328-58.528 14.624s-29.248 14.624-36.576 29.248c-7.328 14.624-21.952 43.872-36.576 95.072l-160.928 541.248c-14.624 43.872-21.952 65.824-21.952 80.448 0 21.952 7.328 36.576 29.248 43.872s36.576 14.624 65.824 14.624h21.952z" p-id="2428"></path></svg>