<?xml version="1.0" standalone="no"?><!DOCTYPE svg PUBLIC "-//W3C//DTD SVG 1.1//EN" "http://www.w3.org/Graphics/SVG/1.1/DTD/svg11.dtd"><svg t="1553664571813" class="icon" style="" viewBox="0 0 1024 1024" version="1.1" xmlns="http://www.w3.org/2000/svg" p-id="2863" xmlns:xlink="http://www.w3.org/1999/xlink" width="200" height="200"><defs><style type="text/css"></style></defs><path d="M976.896 884.736H90.112V96.768c0-23.552-18.944-41.984-42.496-41.984S5.12 73.728 5.12 96.768V926.72a42.391 42.391 0 0 0 42.496 42.496h929.28c23.552 0 41.984-18.944 41.984-42.496 0-23.04-18.944-41.984-41.984-41.984z" fill="lightblue" p-id="2864"></path><path d="M158.72 839.68c10.24 0 20.48-3.584 28.16-11.264l262.656-249.344 90.624 125.952c7.168 9.728 17.92 15.872 30.208 16.896 11.776 1.024 24.064-3.584 32.256-12.288l353.28-358.4c15.872-15.872 15.872-41.984-0.512-57.856s-41.984-15.872-57.856 0.512L578.56 617.472l-89.6-124.416c-6.656-9.728-17.408-15.872-29.184-16.896-11.776-1.024-23.552 3.072-32.256 11.264l-296.96 281.6c-16.384 15.36-16.896 41.472-1.536 57.856 8.192 8.704 18.944 12.8 29.696 12.8z" fill="lightblue" p-id="2865" ></path><path d="M282.624 527.36c10.24 0 20.48-3.584 28.16-11.264l165.888-157.184 69.632 105.984c6.656 10.24 17.92 16.896 30.208 18.432 12.288 1.024 24.576-3.072 33.28-11.776l253.44-253.44c15.872-15.872 15.872-41.984 0-57.856s-41.984-15.872-57.856 0l-217.6 217.6-69.12-104.96C512 262.656 501.248 256 488.96 254.464c-12.288-1.536-24.064 2.56-32.768 10.752L254.976 456.192c-16.384 15.36-16.896 41.472-1.536 57.856 7.68 9.216 18.432 13.312 29.184 13.312z" fill="lightblue" p-id="2866" ></path></svg>