<?xml version="1.0" standalone="no"?><!DOCTYPE svg PUBLIC "-//W3C//DTD SVG 1.1//EN" "http://www.w3.org/Graphics/SVG/1.1/DTD/svg11.dtd"><svg t="1554984145138" class="icon" style="" viewBox="0 0 1024 1024" version="1.1" xmlns="http://www.w3.org/2000/svg" p-id="1732" xmlns:xlink="http://www.w3.org/1999/xlink" width="48" height="48"><defs><style type="text/css"></style></defs><path d="M634.662788 740.848485l-173.273212 28.609939-202.131394-57.250909v-300.466424l129.954909 42.914909v30.006303l-101.096727-30.068364v243.246546l173.273212 42.945939 173.273212-28.640969 101.065697 42.945939v-243.246546l-71.866182-21.379878 4.220121-27.710061 96.504243 34.78497v300.528485z m-2.947879-330.193455l-112.577939 215.691637-112.515879-215.691637a117.915152 117.915152 0 0 1-17.532121-61.657212 130.110061 130.110061 0 0 1 259.847757 0 117.604848 117.604848 0 0 1-17.501091 61.657212z m-112.546909-123.283394a61.719273 61.719273 0 1 0 64.946424 61.626182 63.363879 63.363879 0 0 0-64.853333-61.626182z" p-id="1733" fill="lightblue"></path></svg>