<?xml version="1.0" standalone="no"?><!DOCTYPE svg PUBLIC "-//W3C//DTD SVG 1.1//EN" "http://www.w3.org/Graphics/SVG/1.1/DTD/svg11.dtd"><svg t="1554641012826" class="icon" style="" viewBox="0 0 1024 1024" version="1.1" xmlns="http://www.w3.org/2000/svg" p-id="3176" xmlns:xlink="http://www.w3.org/1999/xlink" width="200" height="200"><defs><style type="text/css"></style></defs><path d="M732.757333 0 0 732.757333 291.264 1024 1024 291.264 732.757333 0zM63.018667 752.533333l70.037333-70.037333 56.32 56.298667 21.610667-21.610667-56.298667-56.32 66.538667-66.538667 134.016 134.016 21.632-21.632-134.037333-134.016 66.56-66.538667 56.32 56.298667 21.610667-21.610667-56.298667-56.298667 66.517333-66.538667 134.037333 134.016 21.632-21.632-134.037333-134.016 66.538667-66.56 56.32 56.32 21.632-21.610667-56.32-56.32 66.538667-66.538667 134.037333 134.016 21.610667-21.610667-134.016-134.037333 66.538667-66.56 56.32 56.32 21.632-21.610667-56.341333-56.32 68.885333-68.885333 228.224 228.245333-689.493333 689.493333L63.018667 752.533333z" p-id="3177"></path></svg>