<?xml version="1.0" standalone="no"?><!DOCTYPE svg PUBLIC "-//W3C//DTD SVG 1.1//EN" "http://www.w3.org/Graphics/SVG/1.1/DTD/svg11.dtd"><svg t="1552813258214" class="icon" style="" viewBox="0 0 1024 1024" version="1.1" xmlns="http://www.w3.org/2000/svg" p-id="3029" xmlns:xlink="http://www.w3.org/1999/xlink" width="200" height="200"><defs><style type="text/css"></style></defs><path d="M966.8352 496.9216l-227.7376-179.712c-8.2944-6.5536-20.4032-5.1712-26.9568 3.2-6.5536 8.32-5.1456 20.3776 3.2 26.9568l184.2944 145.4336L127.616 492.8l184.2944-145.4336c8.32-6.5792 9.7536-18.6624 3.2-26.9568-6.5792-8.3456-18.6624-9.728-26.9568-3.2l-227.7376 179.712C55.7824 500.5568 53.0944 506.1376 53.0944 512s2.688 11.4432 7.3216 15.0784l227.7376 179.712c3.5072 2.7648 7.7056 4.1216 11.8784 4.1216 5.6832 0 11.2896-2.5088 15.0784-7.3216 6.5536-8.32 5.1456-20.3776-3.2-26.9568L127.616 531.2l771.9936 0-184.2944 145.4336c-8.32 6.5792-9.7536 18.6624-3.2 26.9568 3.7888 4.8128 9.4208 7.3216 15.0784 7.3216 4.1728 0 8.3712-1.3568 11.8784-4.1216l227.7376-179.712c4.6336-3.6352 7.3216-9.1904 7.3216-15.0784S971.4432 500.5568 966.8352 496.9216z" p-id="3030"></path></svg>