<?xml version="1.0" standalone="no"?><!DOCTYPE svg PUBLIC "-//W3C//DTD SVG 1.1//EN" "http://www.w3.org/Graphics/SVG/1.1/DTD/svg11.dtd"><svg t="1554643619774" class="icon" style="" viewBox="0 0 1024 1024" version="1.1" xmlns="http://www.w3.org/2000/svg" p-id="4553" xmlns:xlink="http://www.w3.org/1999/xlink" width="200" height="200"><defs><style type="text/css"></style></defs><path d="M827.104689 943.762343A532.918476 532.918476 0 0 0 1024.00512 527.799212C1024.00512 236.251991 795.506997 0.439588 512.736914 0.000731 229.674259-0.364983 0.005851 235.95942 0.005851 527.799212a532.699048 532.699048 0 0 0 188.927865 409.380279c4.461711 3.65714 10.971421 2.925712 14.628561-1.755428l50.395393-66.559952a10.825135 10.825135 0 0 0-1.535999-14.701704 421.521985 421.521985 0 0 1-117.759916-162.230741A426.495695 426.495695 0 0 1 102.405778 527.799212c0-57.051388 10.751992-112.347348 32.182834-164.351883a421.521985 421.521985 0 0 1 87.771366-134.217047 407.405423 407.405423 0 0 1 130.194193-90.550792A396.580288 396.580288 0 0 1 512.005486 105.545799c55.295961 0 108.982779 11.117706 159.378172 33.133691a407.405423 407.405423 0 0 1 130.194192 90.550792c37.595402 38.765687 67.145095 83.96794 87.771366 134.217047 21.357699 52.004534 32.182834 107.300495 32.182834 164.351883 0 57.051388-10.825135 112.274206-32.182834 164.278739a421.521985 421.521985 0 0 1-125.293625 168.521023l-52.077677-68.754237a10.16685 10.16685 0 0 0-18.066273 3.949712l-50.687963 214.08899c-1.535999 6.582852 3.291426 13.092562 9.801136 13.092562l213.796418 1.023999c8.557708 0 13.458276-10.16685 8.045709-17.042274l-47.762252-63.195383z" fill="#666" p-id="4554"></path></svg>