<?xml version="1.0" standalone="no"?><!DOCTYPE svg PUBLIC "-//W3C//DTD SVG 1.1//EN" "http://www.w3.org/Graphics/SVG/1.1/DTD/svg11.dtd"><svg t="1554691417401" class="icon" style="" viewBox="0 0 1024 1024" version="1.1" xmlns="http://www.w3.org/2000/svg" p-id="1794" xmlns:xlink="http://www.w3.org/1999/xlink" width="48" height="48"><defs><style type="text/css"></style></defs><path d="M935.244 75.846h-136.11c-21.21 0-31.464 10.252-31.11 31.112v45.604h-189.848c-1.768 0-3.536 0-5.302 0.354-1.768-0.354-3.536-0.354-5.302-0.354-7.424 0-13.79 2.474-18.736 7.778-5.302 4.95-7.78 11.314-7.78 18.738v303.684H325.402v-80.252c0-22.624-10.958-33.584-33.584-33.584H77.932c-22.272 0-33.586 10.96-33.586 33.584v213.888c0 22.272 11.314 33.584 33.586 33.584h213.886c22.626 0 33.584-11.312 33.584-33.584v-80.606h215.654v300.856c0 7.424 2.476 13.79 7.78 18.74 4.948 5.302 11.312 7.776 18.736 7.776h200.454v51.614c-0.356 20.508 9.898 31.116 31.11 31.116h136.11c20.86 0 31.114-10.608 31.114-31.116v-136.462c0-20.504-10.254-31.11-31.114-31.11h-136.11c-21.21 0-31.464 10.606-31.11 31.11v31.818h-173.94v-274.34h173.94v43.13c-0.356 20.858 9.898 31.112 31.11 31.112h136.11c20.86 0 31.114-10.254 31.114-31.112v-136.11c0-20.86-10.254-31.11-31.114-31.11h-136.11c-21.21 0-31.464 10.25-31.11 31.11v39.95h-173.94V205.592h173.94v37.474c-0.356 20.858 9.898 31.11 31.11 31.11h136.11c20.86 0 31.114-10.252 31.114-31.11V106.958c-0.002-20.86-10.256-31.112-31.116-31.112z m-114.188 53.03h92.274v92.272h-92.274V128.876z m0 335.856h92.274v92.272h-92.274v-92.272z m0 335.5h92.274v92.626h-92.274v-92.626z m-723.68-203.28v-174.998h174.998v174.998H97.376z" fill="" p-id="1795"></path></svg>