<?xml version="1.0" standalone="no"?><!DOCTYPE svg PUBLIC "-//W3C//DTD SVG 1.1//EN" "http://www.w3.org/Graphics/SVG/1.1/DTD/svg11.dtd"><svg t="1554031062298" class="icon" style="" viewBox="0 0 1024 1024" version="1.1" xmlns="http://www.w3.org/2000/svg" p-id="6065" xmlns:xlink="http://www.w3.org/1999/xlink" width="200" height="200"><defs><style type="text/css"></style></defs><path d="M856 556.24H168a40 40 0 0 1 0-80h688a40 40 0 0 1 0 80zM536.856 440.88a48.056 48.056 0 0 1-67.888 0L312.52 284.4a48 48 0 1 1 67.88-67.84l74.512 74.48v-159.2a48 48 0 0 1 96 0v159.2l74.512-74.48a48 48 0 1 1 67.88 67.84z m-70.8 145.6a48.136 48.136 0 0 1 67.712 0L689.84 741.44a47.36 47.36 0 0 1 0 67.28 48.144 48.144 0 0 1-67.72 0l-74.328-73.84v157.68a47.88 47.88 0 0 1-95.76 0V734.88l-74.328 73.84a48.144 48.144 0 0 1-67.72 0 47.36 47.36 0 0 1 0-67.28z" fill="" p-id="6066"></path></svg>