<?xml version="1.0" standalone="no"?><!DOCTYPE svg PUBLIC "-//W3C//DTD SVG 1.1//EN" "http://www.w3.org/Graphics/SVG/1.1/DTD/svg11.dtd"><svg t="1555071250788" class="icon" style="" viewBox="0 0 1025 1024" version="1.1" xmlns="http://www.w3.org/2000/svg" p-id="1416" xmlns:xlink="http://www.w3.org/1999/xlink" width="48.046875" height="48"><defs><style type="text/css"></style></defs><path d="M200.704 276.992h46.08l19.968 81.92L291.84 275.456h43.008l26.112 83.456 19.968-83.456h45.568l-45.568 132.096h-41.984l-25.088-79.36-24.064 79.36h-42.496l-46.592-130.56z m229.888 65.536c0-19.968 6.144-36.864 18.944-49.664 12.8-13.312 30.208-19.456 51.712-19.456 25.088 0 43.52 7.68 56.32 23.04 10.24 12.288 15.36 27.648 15.36 45.568 0 20.48-6.144 36.864-18.944 50.176-12.8 12.8-30.208 19.456-52.224 19.456-19.968 0-35.84-5.12-48.128-15.872-15.872-14.336-23.04-31.744-23.04-53.248z m47.616-0.512c0 11.776 2.048 20.48 6.656 26.112 4.608 5.632 10.24 8.704 16.896 8.704 6.656 0 12.288-2.56 16.896-8.192 4.096-5.632 6.656-14.336 6.656-26.624 0-11.264-2.048-19.968-6.656-25.6s-9.728-8.192-16.384-8.192c-6.656 0-12.8 3.072-16.896 8.704-5.12 5.12-7.168 13.824-7.168 25.088z m117.76-66.048h44.544v21.504c4.096-9.216 8.704-15.872 13.312-19.456 4.608-3.584 10.24-5.12 16.896-5.12 7.168 0 14.848 2.048 23.04 6.656l-14.848 35.84c-5.632-2.56-10.24-3.584-13.312-3.584-6.144 0-11.264 2.56-14.848 8.192-4.608 7.68-7.168 22.016-7.168 43.52v44.032h-48.128V275.968z m113.664-50.176h48.64v94.208l35.328-44.032h58.368l-44.544 46.08 47.104 86.016h-53.248l-25.088-52.736-17.92 18.432v34.304h-48.64V225.792z m-562.688 394.24l36.864 4.608c-2.048 8.704-5.12 16.896-10.24 23.552-4.608 6.144-10.24 11.264-17.92 14.848-7.168 3.584-16.384 5.632-27.136 5.632s-19.456-1.024-26.624-3.584c-7.168-2.048-12.8-6.144-18.432-11.264-5.12-5.12-8.704-11.264-11.776-18.432-3.072-6.656-4.096-16.384-4.096-28.16s1.536-22.016 5.12-30.208c2.56-5.632 6.144-10.752 10.752-15.872 5.12-5.12 9.728-8.192 13.824-10.24 7.168-3.584 16.896-5.632 28.672-5.632 16.384 0 28.672 3.584 37.376 10.24 8.704 6.656 14.848 16.896 18.432 30.208l-36.352 5.632c-1.024-5.12-3.072-8.704-6.144-11.264-3.072-2.56-7.168-4.096-11.776-4.096-6.144 0-11.264 2.56-15.36 8.192-4.096 5.632-6.144 13.312-6.144 24.064 0 9.728 2.048 16.896 6.144 22.016 4.096 5.12 8.704 7.68 14.848 7.68 5.12 0 9.216-1.536 12.8-4.608 3.072-2.048 5.632-6.656 7.168-13.312z m50.688-116.224h38.4v162.304h-38.4V503.808zM256 607.744c0-17.92 5.12-32.768 15.36-44.544 10.24-11.776 24.064-17.408 41.984-17.408 19.968 0 35.328 6.656 45.568 20.48 8.192 11.264 12.288 24.576 12.288 40.448 0 17.92-5.12 32.768-15.36 44.544-10.24 11.264-24.576 17.408-42.496 17.408-15.872 0-29.184-4.608-38.912-14.336-12.288-11.776-18.432-27.136-18.432-46.592z m38.4 0c0 10.24 2.048 18.432 5.632 23.552 3.584 5.12 8.192 7.68 13.824 7.68s10.24-2.56 13.824-7.68c3.584-5.12 5.12-12.8 5.12-23.552 0-10.24-1.536-17.92-5.12-23.04s-8.192-7.68-13.312-7.68c-5.632 0-10.24 2.56-13.824 7.68-4.608 4.608-6.144 12.288-6.144 23.04z m200.704 58.368h-35.84v-18.944c-5.12 7.68-10.752 13.312-16.384 16.896-5.632 3.584-12.288 5.12-19.968 5.12-10.752 0-18.944-3.584-25.088-10.752-6.144-7.168-9.216-18.944-9.216-34.304v-74.752h38.4v64.512c0 7.168 1.024 12.288 3.584 15.872 2.56 3.072 5.632 4.608 10.24 4.608 4.608 0 8.192-2.048 11.264-6.144 3.072-4.096 4.096-11.776 4.096-22.016v-56.832h38.4v116.736z m129.024-162.304v162.304h-35.84v-17.408c-5.12 7.68-9.728 12.8-13.824 14.848-5.632 3.584-11.776 5.12-18.432 5.12-13.312 0-24.064-6.144-31.232-18.432-7.168-12.288-10.752-27.136-10.752-44.544 0-19.456 4.096-34.304 11.776-44.544 8.192-10.24 17.92-15.872 30.208-15.872 5.632 0 11.264 1.024 16.384 3.584s9.216 6.144 12.8 10.752v-56.32h38.912z m-38.4 103.424c0-9.216-1.536-16.384-5.12-20.48-3.584-4.608-7.68-6.656-12.8-6.656-4.608 0-8.192 2.048-11.264 6.656-3.072 4.096-4.608 11.264-4.608 22.016 0 9.216 1.536 16.384 4.608 21.504 3.072 4.608 7.168 6.656 11.776 6.656 5.12 0 9.216-2.048 12.288-6.656 3.584-5.632 5.12-12.8 5.12-23.04zM337.92 466.944l-13.312-1.536c0.512-2.56 1.536-4.096 2.048-5.632 0.512-1.024 2.048-2.048 4.096-3.584 1.536-0.512 3.584-1.024 5.12-1.536 3.072-0.512 5.12-0.512 7.168-0.512 3.072 0 6.656 0 10.24 0.512 2.56 0.512 4.608 1.536 6.144 3.072 1.024 1.024 2.048 2.56 3.072 4.608 0.512 1.536 1.024 3.584 1.024 5.12V487.424c0 1.024 0.512 2.048 1.536 3.584h-12.8l-1.024-2.048s-0.512-1.024-0.512-2.048c-1.536 1.536-3.584 3.072-5.12 3.584-2.56 1.024-5.632 1.536-8.704 1.536-4.608 0-7.68-1.024-9.728-3.072-2.048-2.048-3.072-4.608-3.072-7.168 0-3.072 1.024-5.12 2.56-7.168 1.536-1.536 4.608-3.072 8.704-3.584l10.24-2.048 4.608-1.536c0-2.048-0.512-3.072-1.024-3.584-0.512-0.512-2.048-1.024-4.096-1.024s-4.096 0.512-5.12 1.024c-0.512 0.512-1.024 1.536-2.048 3.072z m12.288 7.168c-0.512 0-1.024 0.512-2.048 0.512l-3.584 1.024c-3.072 0.512-4.608 1.536-5.12 2.048-0.512 0.512-1.024 1.536-1.024 2.56s0.512 2.048 1.024 2.56c0.512 0.512 2.048 1.024 3.584 1.024 1.536 0 3.072-0.512 4.096-1.024 1.536-0.512 2.048-1.536 2.56-2.56 0.512-1.024 1.024-2.56 1.024-4.096v-2.048z m48.128-18.944h12.8v35.84c0 2.56-0.512 4.608-1.536 6.656-1.024 2.048-2.048 3.584-3.584 5.12-1.536 1.024-3.584 2.048-6.144 2.56-2.56 0.512-5.12 1.024-8.704 1.024-7.168 0-12.288-1.024-14.848-3.072-2.56-2.048-4.096-5.12-4.096-8.704v-2.048l13.312 1.536c0.512 1.536 1.024 2.048 1.536 2.56 1.024 0.512 2.56 1.024 4.096 1.024 2.048 0 3.584-0.512 4.608-1.536 1.024-1.024 1.536-2.56 1.536-5.632v-5.12c-1.536 1.536-3.072 3.072-4.096 3.584-2.048 1.024-4.096 1.536-6.656 1.536-4.608 0-8.704-2.048-11.776-6.656-2.048-3.072-3.072-7.168-3.072-11.776 0-5.632 1.536-9.728 4.096-12.8 2.56-3.072 6.144-4.608 10.752-4.608 2.56 0 5.12 0.512 7.168 1.536 1.536 1.024 3.584 2.56 5.12 4.608v-5.632z m-12.8 17.408c0 2.56 0.512 4.608 1.536 5.632 1.024 1.536 2.56 2.048 4.096 2.048 1.536 0 3.072-0.512 4.608-2.048 1.024-1.536 1.536-3.072 1.536-6.144 0-2.56-0.512-4.608-2.048-6.144-1.536-1.536-2.56-2.048-4.096-2.048-2.048 0-3.584 0.512-4.608 2.048-1.024 1.536-1.024 3.584-1.024 6.656z m34.816-31.232h13.824v9.728h-13.824v-9.728z m0 13.824h13.824V491.52h-13.824v-36.352z m23.04-13.824h13.824V491.52h-13.824v-50.176z m62.976 35.328h-27.648c0 2.048 1.024 4.096 1.536 5.12 1.536 1.536 3.072 2.56 5.12 2.56 1.024 0 2.56-0.512 4.096-1.024l2.56-2.56 13.824 1.536c-2.048 3.584-4.608 6.656-7.68 8.192-3.072 1.536-7.168 2.048-12.8 2.048-4.608 0-8.192-0.512-11.264-2.048-2.56-1.024-4.608-3.584-6.656-6.144-2.048-3.072-3.072-6.656-3.072-10.24 0-5.632 2.048-10.24 5.632-13.824 3.584-3.584 8.704-5.12 14.848-5.12 5.12 0 9.216 1.024 12.288 2.56 3.072 1.536 5.632 4.096 7.168 6.656s2.048 6.656 2.048 11.776v0.512z m-13.824-6.656c-0.512-2.56-1.024-4.096-2.048-5.632-1.024-1.024-2.56-2.048-4.608-2.048s-3.584 1.024-5.12 2.56c-1.024 1.024-1.536 3.072-1.536 4.608h13.312z m44.544-28.672h29.184c4.608 0 8.192 1.024 10.752 3.584 2.56 2.56 4.096 5.632 4.096 9.216 0 3.072-1.024 5.12-2.56 7.68-1.024 1.024-3.072 2.56-5.12 3.584 3.584 1.024 6.144 2.048 7.68 4.096 1.536 2.048 2.56 4.608 2.56 8.192 0 2.56-0.512 5.12-1.536 7.168-1.024 2.048-2.56 3.584-5.12 4.608-1.024 0.512-3.072 1.536-6.144 1.536l-3.584 0.512c-1.536 0-2.56 0.512-3.072 0.512H537.6v-50.688z m15.36 19.456h6.656c2.56 0 4.096-0.512 5.12-1.536 1.024-1.024 1.536-2.048 1.536-3.584 0-1.536-0.512-2.56-1.536-3.584-1.024-1.024-2.56-1.024-5.12-1.024h-6.656V460.8z m0 19.968h7.68c2.56 0 4.608-0.512 5.632-1.536 1.024-1.024 1.536-2.048 1.536-3.584 0-1.536-0.512-2.56-1.536-3.584-1.024-1.024-3.072-1.536-5.632-1.536h-7.68v10.24z m38.4-39.424h13.824v9.728h-13.824v-9.728z m0 13.824h13.824V491.52h-13.824v-36.352z m104.96 81.92V599.04h-13.312v-6.656c-1.536 2.56-3.584 4.096-5.12 5.632-2.048 1.536-4.096 2.048-7.168 2.048-5.12 0-9.216-2.56-11.776-7.168-2.56-4.608-4.096-10.24-4.096-16.896 0-7.68 1.536-13.312 4.096-16.896s6.656-5.632 11.776-5.632c2.56 0 4.608 0.512 6.144 1.536 1.536 1.024 3.584 2.048 4.608 4.096V537.6h14.848z m-14.336 39.424c0-3.584-0.512-6.144-2.048-8.192-1.024-1.536-2.56-2.56-4.608-2.56s-3.584 1.024-4.608 2.56c-1.024 1.536-1.536 4.608-1.536 8.192 0 3.584 0.512 6.656 2.048 8.192s2.56 2.56 4.096 2.56 3.072-1.024 4.608-2.56c1.536-1.536 2.048-4.096 2.048-8.192z m36.352-7.68l-13.824-1.536c0.512-3.072 1.024-5.12 2.048-6.656 1.024-2.048 2.56-3.584 4.096-4.608 1.536-1.024 3.584-1.536 5.632-2.048 2.048-0.512 4.608-0.512 7.168-0.512 4.608 0 8.192 0 10.752 0.512s4.608 2.048 6.656 3.584c1.024 1.024 2.048 3.072 3.072 5.12 0.512 2.56 1.024 4.608 1.024 6.656v19.968c0 1.536 0 3.072 0.512 5.12 0 1.024 0.512 2.56 1.536 4.608h-13.824c0-0.512-0.512-1.536-0.512-2.048v-0.512c0-1.024-0.512-2.048-0.512-3.072-2.048 2.048-3.584 3.584-5.632 4.608-2.56 1.024-5.12 2.048-8.704 2.048-4.608 0-8.192-1.024-10.24-3.584-2.048-2.56-3.584-5.632-3.584-9.216s1.024-6.144 2.56-8.192c1.536-2.048 4.608-3.584 9.216-5.12 5.632-1.536 8.704-2.048 10.752-2.56 2.048-0.512 4.096-1.536 5.12-2.048 0-2.048-0.512-3.584-1.024-4.608-0.512-1.024-2.048-1.536-4.096-1.536s-4.096 0.512-5.12 1.536c-1.536 0.512-2.56 2.048-3.072 4.096z m12.8 9.216c-2.048 1.024-4.096 1.536-6.144 2.048-3.072 1.024-4.608 1.536-5.632 2.56-1.024 1.024-1.024 2.048-1.024 3.072 0 1.536 0.512 2.56 1.024 3.584 1.024 1.024 2.048 1.024 3.584 1.024 1.536 0 3.072-0.512 4.608-1.536 1.536-1.024 2.56-2.048 3.072-3.584 0.512-1.536 1.024-3.072 1.024-5.12v-2.048z m38.912-40.96v17.408h8.192v12.8h-8.192v15.872c0 2.048 0 3.072 0.512 3.584 0.512 1.024 1.024 1.536 2.56 1.536 1.024 0 2.56-0.512 4.608-1.024l1.024 11.776c-3.584 1.024-6.656 1.536-10.24 1.536s-6.144-0.512-7.68-1.536c-1.536-1.024-3.072-2.56-3.584-5.12-1.024-2.048-1.024-5.632-1.024-10.752v-15.872h-5.12v-12.8h5.12v-8.192l13.824-9.216z m28.16 31.744l-13.824-1.536c0.512-3.072 1.024-5.12 2.048-6.656 1.024-2.048 2.56-3.584 4.096-4.608 1.536-1.024 3.584-1.536 5.632-2.048 2.048-0.512 4.608-0.512 7.168-0.512 4.608 0 8.192 0 10.752 0.512s4.608 2.048 6.656 3.584c1.024 1.024 2.048 3.072 3.072 5.12 0.512 2.56 1.024 4.608 1.024 6.656v19.968c0 1.536 0 3.072 0.512 5.12 0 1.024 0.512 2.56 1.536 4.608h-13.824c0-0.512-0.512-1.536-0.512-2.048v-0.512c0-1.024-0.512-2.048-0.512-3.072-2.048 2.048-3.584 3.584-5.632 4.608-2.56 1.024-5.12 2.048-8.704 2.048-4.608 0-8.192-1.024-10.24-3.584-2.048-2.56-3.584-5.632-3.584-9.216s1.024-6.144 2.56-8.192c1.536-2.048 4.608-3.584 9.216-5.12 5.632-1.536 8.704-2.048 10.752-2.56 2.048-0.512 4.096-1.536 5.12-2.048 0-2.048-0.512-3.584-1.024-4.608-0.512-1.024-2.048-1.536-4.096-1.536s-4.096 0.512-5.12 1.536c-2.048 0.512-2.56 2.048-3.072 4.096z m12.288 9.216c-2.048 1.024-4.096 1.536-6.144 2.048-3.072 1.024-4.608 1.536-5.632 2.56-1.024 1.024-1.024 2.048-1.024 3.072 0 1.536 0.512 2.56 1.024 3.584 1.024 1.024 2.048 1.024 3.584 1.024s3.072-0.512 4.608-1.536c1.536-1.024 2.56-2.048 3.072-3.584 0.512-1.536 1.024-3.072 1.024-5.12v-2.048z m-163.328-128.512h16.896v18.432h18.432v-18.432h16.896v53.248h-16.896V481.28h-18.432v21.504h-16.896V449.536z m75.776 26.624l-14.336-1.536c0.512-2.56 1.536-4.608 2.56-5.632 1.536-2.048 3.072-3.072 4.096-3.584 1.536-0.512 3.072-1.024 5.632-1.536s5.12-0.512 8.192-0.512c4.608 0 8.192 0 10.752 0.512 3.072 0.512 5.12 1.536 6.656 3.072 1.536 1.024 2.56 2.56 3.072 4.608 0.512 2.048 1.024 3.584 1.024 5.632v16.896c0 2.048 0 3.584 0.512 4.096 0 0.512 0.512 2.048 1.536 4.096h-13.824c-0.512-0.512-1.024-1.536-1.024-2.048 0-0.512-0.512-1.024-0.512-2.56-2.048 2.048-4.096 3.072-6.144 4.096-2.56 1.024-5.632 1.536-9.216 1.536-5.12 0-8.704-1.024-10.752-3.072-2.56-2.048-3.584-4.608-3.584-7.68s1.024-5.632 2.56-7.168c1.536-2.048 5.12-3.072 9.728-4.096 6.144-1.024 9.728-2.048 10.752-2.56 2.048-0.512 3.584-1.024 5.12-1.536 0-2.048-0.512-3.072-1.024-4.096-0.512-0.512-2.048-1.024-4.096-1.024s-4.096 0.512-5.12 1.536c-1.536 0-2.048 1.024-2.56 2.56z m12.8 7.68c-1.536 0.512-3.584 1.024-6.656 2.048-3.072 1.024-5.12 1.536-5.632 2.56-1.024 0.512-1.536 1.536-1.536 2.56s0.512 2.048 1.024 2.56c1.024 0.512 2.048 1.024 3.584 1.024 1.536 0 3.072-0.512 4.608-1.024 1.536-1.024 2.56-2.048 3.072-3.072 0.512-1.024 1.024-2.56 1.024-4.608v-2.048z m65.024-34.304v53.248h-13.824V496.64c-2.048 2.56-4.096 4.096-5.12 4.608-2.048 1.024-4.608 1.536-7.168 1.536-5.632 0-9.728-2.048-12.288-6.144-2.56-4.096-4.096-8.704-4.096-14.336 0-6.144 1.536-11.264 4.608-14.848 3.072-3.584 6.656-5.12 11.776-5.12 2.56 0 4.608 0.512 6.656 1.024 2.048 1.024 3.584 2.048 5.12 3.584v-18.432h14.336z m-15.36 33.28c0-3.072-0.512-5.12-2.048-6.656-1.024-1.536-2.56-2.048-4.608-2.048s-3.584 0.512-4.608 2.048c-1.024 1.536-1.536 3.584-1.536 7.168 0 3.072 0.512 5.632 1.536 7.168 1.024 1.536 2.56 2.048 4.608 2.048s3.584-0.512 4.608-2.048c1.536-1.536 2.048-4.096 2.048-7.68z m23.04 0.512c0-6.144 2.048-10.752 6.144-14.336 4.096-3.584 9.216-5.632 16.384-5.632 8.192 0 13.824 2.048 17.92 6.656 3.072 3.584 4.608 8.192 4.608 13.312 0 6.144-2.048 10.752-6.144 14.336-4.096 3.584-9.728 5.632-16.384 5.632-6.656 0-11.776-1.536-15.36-4.608-5.12-4.096-7.168-9.216-7.168-15.36z m14.848 0c0 3.584 0.512 5.632 2.048 7.68 1.536 1.536 3.072 2.56 5.12 2.56s4.096-1.024 5.12-2.56c1.536-1.536 2.048-4.096 2.048-7.68s-0.512-5.632-2.048-7.168c-1.536-1.536-3.072-2.56-5.632-2.56s-4.096 1.024-5.632 2.56c-0.512 1.024-1.024 3.584-1.024 7.168z m35.328 0c0-6.144 2.048-10.752 6.144-14.336 4.096-3.584 9.216-5.632 16.384-5.632 8.192 0 13.824 2.048 17.92 6.656 3.584 3.584 5.12 8.192 5.12 13.312 0 5.632-2.048 10.752-6.144 14.336-4.096 3.584-9.728 5.632-16.896 5.632-6.656 0-11.776-1.536-15.36-4.608-4.608-4.096-7.168-9.216-7.168-15.36z m14.848 0c0 3.584 0.512 5.632 2.048 7.68 1.536 1.536 3.072 2.56 5.12 2.56s4.096-1.024 5.12-2.56c1.536-1.536 2.048-4.096 2.048-7.68s-0.512-5.632-2.048-7.168c-1.536-1.536-3.072-2.56-5.12-2.56s-4.096 1.024-5.632 2.56c-0.512 1.024-1.536 3.584-1.536 7.168z m37.376 33.792V463.872h13.824v5.632c2.048-2.56 4.096-4.096 5.12-5.12 2.048-1.024 4.608-1.536 7.168-1.536 5.12 0 9.216 2.048 12.288 6.144 3.072 4.096 4.096 8.704 4.096 14.848s-1.536 11.264-4.608 14.336-7.168 5.12-11.776 5.12c-2.56 0-4.608-0.512-6.656-1.024-2.048-1.024-3.584-2.048-5.12-3.072v18.432h-14.336z m15.36-33.792c0 3.072 0.512 5.632 2.048 7.168s3.072 2.048 5.12 2.048c1.536 0 3.072-0.512 4.096-2.048s1.536-3.584 1.536-7.168-0.512-5.632-1.536-7.168c-1.024-1.536-2.56-2.048-4.608-2.048s-3.584 0.512-4.608 2.048-2.048 3.584-2.048 7.168z m-273.408 188.416l17.408-1.536c0.512 3.584 1.024 5.632 2.56 7.168 2.048 3.072 4.608 4.096 8.192 4.096 3.072 0 5.12-0.512 6.144-2.048 1.536-1.536 2.048-3.072 2.048-4.608s-0.512-3.584-2.048-5.12c-1.536-1.536-4.608-2.56-9.216-4.096-8.192-2.048-13.824-5.12-17.408-8.192-3.584-3.584-5.12-7.68-5.12-13.312 0-3.584 1.024-7.168 2.56-10.24 2.048-3.072 4.608-5.632 8.192-7.168 4.096-2.048 8.704-2.56 14.848-2.56 7.68 0 13.824 1.536 17.408 4.608 4.096 3.072 6.144 8.192 7.168 15.36l-17.408 1.024c-0.512-3.072-1.536-5.12-3.072-6.656-1.536-1.536-3.584-2.048-6.144-2.048-2.048 0-3.584 0.512-4.608 1.536-1.024 1.024-1.536 2.048-1.536 4.096 0 1.024 0.512 2.048 1.536 3.072 1.024 1.024 3.072 1.536 6.144 2.56 8.192 2.048 13.824 4.096 17.408 6.144 3.584 2.048 6.144 4.608 7.68 7.168 1.536 3.072 2.56 6.656 2.56 10.24 0 4.096-1.024 8.192-3.072 11.776-2.048 3.584-5.12 6.656-9.216 8.704-3.584 2.048-8.192 2.56-14.336 2.56-10.24 0-16.896-2.048-20.992-6.656-5.12-3.584-7.168-9.216-7.68-15.872z m62.464 40.96v-68.096h15.36v7.168c2.048-3.072 4.096-5.12 6.144-6.144 2.56-1.536 5.12-2.048 8.192-2.048 5.632 0 10.24 2.56 13.312 7.68 3.072 5.12 4.608 11.264 4.608 18.432 0 8.192-1.536 14.336-5.12 18.944-3.584 4.096-7.68 6.656-12.8 6.656-2.56 0-4.608-0.512-6.656-1.536-2.048-1.024-4.096-2.56-5.632-4.096v23.552h-17.408z m16.384-43.008c0 4.096 0.512 6.656 2.048 8.704 1.536 2.048 3.072 2.56 5.632 2.56 2.048 0 3.584-1.024 5.12-2.56 1.536-2.048 2.048-4.608 2.048-8.704 0-4.096-0.512-7.168-2.048-9.216s-3.072-3.072-5.12-3.072-4.096 1.024-5.12 3.072c-2.048 2.048-2.56 5.12-2.56 9.216z m39.424-43.52h16.384v68.096h-16.384v-68.096z m72.192 68.096h-15.36V686.08c-2.048 3.072-4.608 5.632-6.656 7.168-2.56 1.536-5.12 2.048-8.704 2.048-4.608 0-8.192-1.536-10.752-4.608-2.56-3.072-4.096-7.68-4.096-14.336V645.12h16.896v27.136c0 3.072 0.512 5.12 1.536 6.656 1.024 1.536 2.56 2.048 4.096 2.048s3.584-1.024 4.608-2.56c1.536-1.536 2.048-5.12 2.048-9.216v-23.552h16.384v48.64z m10.24-49.664h15.36v8.192c2.048-3.072 4.608-5.632 6.656-7.168 2.56-1.536 5.12-2.048 8.704-2.048 4.608 0 8.192 1.536 10.752 4.608 2.56 3.072 4.096 7.68 4.096 14.336v31.232h-16.896v-27.136c0-3.072-0.512-5.12-1.536-6.656-1.024-1.536-2.56-2.048-4.096-2.048-2.048 0-3.584 1.024-4.608 2.56-1.536 1.536-2.048 5.12-2.048 9.216v23.552h-16.384v-48.64z m55.296-18.432h16.896v35.328l12.288-16.384h20.48l-15.36 17.408 16.384 32.256h-18.432l-8.704-19.968-6.144 6.656v12.8h-16.896v-68.096z m-418.304 137.216l-20.992-2.048c1.024-3.584 2.048-5.632 3.584-7.68 1.536-2.048 3.584-3.584 6.656-4.608 2.048-1.024 4.608-1.536 8.192-2.048 4.096-0.512 7.68-1.024 11.264-1.024 6.656 0 11.776 0.512 15.872 1.024s7.168 2.048 9.728 4.096c2.048 1.536 3.072 3.584 4.096 6.144 1.024 3.072 1.536 5.632 1.536 7.168v22.528c0 2.048 0 4.096 0.512 5.12 0.512 1.536 1.024 3.072 2.048 5.12h-20.48l-1.536-3.072-0.512-3.072c-3.072 2.56-6.144 4.096-8.704 5.12-3.584 1.536-8.192 2.048-13.312 2.048-6.656 0-11.776-1.536-15.36-4.096-3.584-3.072-5.12-6.144-5.12-10.24 0-3.584 1.536-7.168 4.096-9.216 2.56-2.56 7.168-4.096 13.824-5.12 7.168-1.536 12.288-2.56 15.872-3.072 2.56-0.512 5.12-1.536 7.68-2.048 0-2.56-0.512-4.096-1.536-5.12-1.024-1.024-3.072-1.536-5.632-1.536-3.584 0-6.144 0.512-8.192 1.536-1.536 0-2.56 1.536-3.584 4.096z m18.944 9.728c-0.512 0-1.024 0-1.536 0.512-3.584 1.024-6.144 2.048-8.192 2.048-4.608 1.024-7.168 2.048-8.704 3.072-1.024 1.024-1.536 2.048-1.536 3.584 0 1.536 0.512 2.56 1.536 3.584 1.536 1.024 3.072 1.536 5.632 1.536s4.608-0.512 6.656-1.536c2.048-1.024 3.584-2.048 4.096-3.584 1.024-1.536 1.536-3.584 1.536-5.632v-3.584z m76.8 4.096l20.48 2.048c-1.024 3.584-3.072 7.168-5.632 10.24-3.072 3.072-6.656 5.12-10.24 6.656-4.096 1.536-9.216 2.048-15.36 2.048-6.656 0-11.776-0.512-15.36-1.536-3.584-1.024-7.168-2.56-10.24-5.12-3.072-2.048-5.12-4.608-6.656-7.68-1.536-3.072-2.56-7.168-2.56-11.776 0-5.632 1.024-9.728 3.072-12.8 1.536-2.56 3.584-4.608 6.144-6.656s5.12-3.584 8.192-4.608c4.608-1.536 10.24-2.56 16.384-2.56 9.216 0 16.384 1.536 21.504 4.608 5.12 3.072 8.192 7.168 10.24 12.8l-20.48 2.56c-0.512-2.048-2.048-3.584-3.584-4.608-1.536-1.024-4.096-1.536-6.656-1.536-3.584 0-6.656 1.024-8.704 3.584-2.048 2.048-3.584 5.632-3.584 10.24s1.024 7.68 3.584 9.728c2.048 2.048 5.12 3.072 8.704 3.072 3.072 0 5.12-0.512 7.168-2.048 1.024-1.536 2.56-3.584 3.584-6.656z m73.216 0l20.48 2.048c-1.024 3.584-3.072 7.168-5.632 10.24s-6.144 5.12-10.24 6.656c-4.096 1.536-9.216 2.048-15.872 2.048s-11.264-0.512-15.36-1.536c-3.584-1.024-7.168-2.56-10.24-5.12-3.072-2.56-5.12-5.12-7.168-7.68-1.536-3.072-2.56-6.656-2.56-11.776 0-5.632 1.024-9.728 3.072-12.8 1.536-2.56 3.584-4.608 6.144-6.656 2.048-2.048 4.608-3.584 7.68-4.608 4.608-1.536 10.24-2.56 16.384-2.56 9.216 0 16.384 1.536 21.504 4.608 5.12 3.072 8.192 7.168 10.24 12.8l-20.48 2.56c-0.512-2.048-1.536-3.584-3.584-4.608s-4.096-1.536-7.168-1.536c-3.584 0-6.656 1.024-8.704 3.584-2.56 2.56-3.584 6.144-3.584 10.24s1.024 7.68 3.584 9.728c2.048 2.048 5.12 3.072 8.704 3.072 3.072 0 5.12-0.512 7.168-2.048 3.584-1.536 5.12-3.584 5.632-6.656z m94.208-0.512h-44.032c0.512 3.072 1.536 5.12 2.56 7.168 2.56 2.048 5.12 3.072 8.192 3.072 2.048 0 4.096-0.512 6.144-1.536 1.536-1.024 2.56-2.048 4.096-3.072l21.504 1.536c-3.584 5.12-7.68 8.704-11.776 10.752-4.608 2.048-11.264 3.072-19.968 3.072-7.168 0-13.312-1.024-17.408-3.072-4.608-2.048-8.192-5.12-10.752-8.704-2.56-4.096-4.096-8.704-4.096-14.336 0-7.68 3.072-14.336 8.704-18.944 6.144-5.12 13.824-7.168 23.552-7.168 8.192 0 14.848 1.024 19.456 3.072 4.608 2.048 8.192 5.12 10.752 9.728 2.56 4.096 3.584 9.728 3.584 16.384v2.048z m-22.016-9.216c-0.512-3.584-1.536-6.144-3.072-7.68-1.536-1.536-4.096-2.56-7.168-2.56-3.584 0-6.144 1.024-8.192 3.584-1.536 1.536-2.048 3.584-2.56 6.656h20.992z m28.16 15.872l21.504-2.048c1.024 2.048 2.048 3.584 3.584 4.608s3.584 1.536 6.656 1.536 5.12-0.512 6.656-1.536c1.024-0.512 2.048-1.536 2.048-3.072s-1.024-2.56-2.56-3.072c-2.56-0.512-5.632-1.024-9.216-2.048-8.192-1.536-13.824-2.56-15.872-3.584-3.072-1.024-5.632-2.56-7.68-5.12-2.048-2.56-3.072-5.12-3.072-8.192s1.024-6.144 3.072-8.192c2.048-2.56 5.12-4.096 9.216-5.12 4.096-1.024 9.728-2.048 15.36-2.048 6.656 0 11.264 0.512 14.848 1.536 3.584 1.024 6.144 2.56 8.192 4.096 2.048 2.048 3.584 4.608 5.12 7.68l-20.48 2.048c-0.512-1.536-1.536-2.56-2.56-3.584-1.536-1.024-3.584-1.536-6.144-1.536s-4.096 0.512-5.12 1.024c-1.024 1.024-2.048 2.048-2.048 3.072s0.512 2.048 2.048 2.56c1.536 0.512 4.608 1.024 9.216 1.536 7.168 0.512 12.288 1.536 15.872 3.072 3.584 1.536 6.144 3.072 8.192 5.632 2.048 2.048 2.56 5.12 2.56 7.68 0 3.072-1.024 5.632-3.072 8.704-2.048 3.072-5.12 5.12-9.216 6.656-4.608 1.536-10.24 2.56-17.408 2.56-10.24 0-17.408-1.536-22.016-4.096-3.584-2.56-6.144-6.144-7.68-10.752z m67.072 0l21.504-2.048c1.024 2.048 2.048 3.584 3.584 4.608s3.584 1.536 6.656 1.536 5.12-0.512 6.656-1.536c1.024-0.512 2.048-1.536 2.048-3.072s-1.024-2.56-2.56-3.072c-2.048-0.512-5.12-1.024-9.216-2.048-8.192-1.536-13.824-2.56-15.872-3.584-3.072-1.024-5.632-2.56-7.68-5.12-2.048-2.56-3.072-5.12-3.072-8.192s1.024-6.144 3.072-8.192c2.048-2.56 5.12-4.096 9.216-5.12 4.096-1.024 9.728-2.048 15.36-2.048 6.656 0 11.264 0.512 14.848 1.536 3.584 1.024 6.144 2.56 8.192 4.096 2.048 2.048 3.584 4.608 5.12 7.68l-20.48 2.048c-0.512-1.536-1.536-2.56-2.56-3.584-1.536-1.024-3.584-1.536-6.144-1.536s-4.096 0.512-5.632 1.024c-1.536 1.024-2.048 1.536-2.048 3.072 0 1.024 0.512 2.048 2.048 2.56 1.536 0.512 4.608 1.024 9.216 1.536 7.168 0.512 12.288 1.536 15.872 3.072 3.584 1.536 6.144 3.072 8.192 5.632 2.048 2.048 2.56 5.12 2.56 7.68 0 3.072-1.024 5.632-3.072 8.704-2.048 3.072-5.12 5.12-9.216 6.656-4.608 1.536-10.24 2.56-17.408 2.56-10.24 0-17.408-1.536-22.016-4.096-2.56-2.56-5.632-6.144-7.168-10.752z m-471.552-96.768h10.24v11.776c1.024-1.024 2.048-1.536 3.072-2.048 1.024-0.512 2.56-0.512 4.608-0.512 3.072 0 5.632 1.024 8.192 3.072 2.048 2.048 3.072 5.12 3.072 9.216 0 3.072-0.512 5.12-1.536 7.168-1.024 2.048-2.56 3.584-4.096 4.608-1.536 1.024-3.584 1.536-5.12 1.536-2.048 0-3.584-0.512-5.12-1.024-1.536-0.512-2.56-1.536-3.584-3.072v3.584h-9.216v-34.304z m10.24 20.992c0 2.048 0.512 3.584 1.024 4.608 1.024 1.024 2.048 1.536 3.072 1.536 1.536 0 2.56-0.512 3.072-1.536 1.024-1.024 1.536-2.56 1.536-4.608s-0.512-3.072-1.024-4.096c-1.024-1.024-1.536-1.536-3.072-1.536s-2.56 0.512-3.584 1.536c-0.512 0.512-1.024 2.048-1.024 4.096z m50.688 12.288h-9.216v-4.096c-1.536 1.536-3.072 2.56-4.096 3.584-1.536 0.512-3.072 1.024-5.12 1.024-2.56 0-4.608-1.024-6.144-2.56-1.536-1.536-2.56-4.096-2.56-7.168v-15.36h10.24v13.312c0 1.536 0.512 2.56 1.024 3.072 0.512 0.512 1.536 1.024 2.56 1.024s2.048-0.512 2.56-1.536c1.024-1.024 1.024-2.56 1.024-4.608v-11.776h10.24v25.088z m4.096-6.656l10.24-1.024c0.512 1.024 1.024 1.536 2.048 2.56 1.024 0.512 1.536 1.024 2.56 1.024s2.048-0.512 3.072-1.024c0.512-0.512 0.512-1.024 0.512-1.536 0-0.512-0.512-1.024-1.024-1.536-0.512 0-1.536-0.512-4.096-1.024h-0.512c-3.584-0.512-5.632-1.024-7.168-1.536-1.024-0.512-2.048-1.024-3.072-2.56-1.024-1.024-1.536-2.56-1.536-4.096s0.512-2.56 1.536-4.096c1.024-1.024 2.56-2.048 4.096-2.56 1.536-0.512 3.584-0.512 7.168-0.512s5.632 0 6.656 0.512c1.536 0.512 2.56 1.024 4.096 2.048 1.024 1.024 2.048 2.048 2.56 3.584l-9.216 1.024c0-0.512-0.512-1.536-1.536-2.048-1.024-0.512-2.048-0.512-2.56-0.512-1.024 0-2.048 0-2.56 0.512-0.512 0.512-0.512 1.024-0.512 1.536 0 0.512 0.512 1.024 1.024 1.536 0.512 0 1.536 0.512 3.072 0.512h1.024c3.072 0 5.12 0.512 7.168 1.536 1.536 0.512 2.56 1.536 3.584 2.56 1.024 1.024 1.536 2.56 1.536 4.096 0 1.024-0.512 2.56-1.536 4.096-0.512 1.536-2.048 2.56-4.096 3.072-2.048 0.512-4.608 1.024-8.192 1.024-4.608 0-8.192-0.512-10.24-1.536-2.048-1.536-3.072-3.072-4.096-5.632z m32.768-26.624h10.24v6.144h-10.24v-6.144z m0 9.216h10.24v24.064h-10.24v-24.064z m16.384 0h9.216v4.096c1.024-1.536 2.56-2.56 4.096-3.584 1.536-0.512 3.072-1.024 5.12-1.024 2.56 0 4.608 1.024 6.144 2.56 1.536 1.536 2.56 4.096 2.56 7.168v15.36h-10.24V706.56c0-1.536-0.512-2.56-1.024-3.584-0.512-0.512-1.536-1.024-2.56-1.024s-2.048 0.512-2.56 1.024c-1.024 1.024-1.024 2.56-1.024 4.608v11.776h-10.24v-23.552z m62.464 14.336h-19.968c0 1.024 0.512 2.56 1.536 3.584 1.024 1.024 2.56 1.536 4.096 1.536 0.512 0 1.536 0 2.56-0.512 0.512-0.512 1.536-1.024 1.536-1.536l9.728 0.512c-1.536 2.56-3.584 4.608-5.632 5.12-2.048 1.024-5.12 1.536-8.704 1.536s-6.656-0.512-8.192-1.536c-2.048-1.024-3.584-2.56-5.12-4.608-1.536-2.048-2.048-4.096-2.048-6.656 0-3.584 1.024-6.656 3.584-9.216 2.56-2.56 6.144-3.584 10.752-3.584 3.584 0 6.656 0.512 8.704 1.536 2.048 1.024 4.096 2.56 5.12 4.608 1.024 2.048 1.536 4.608 1.536 7.68v1.536z m-10.24-4.608c0-2.048-0.512-3.072-1.536-4.096-1.024-0.512-2.048-1.024-3.584-1.024s-2.56 0.512-3.584 1.536c-1.024 1.024-1.536 2.048-1.536 3.584h10.24z m12.8 7.68l9.728-1.024c0.512 1.024 1.024 1.536 2.048 2.56 1.024 0.512 1.536 1.024 2.56 1.024s2.048-0.512 3.072-1.024c0.512-0.512 1.024-1.024 1.024-1.536 0-0.512-0.512-1.024-1.024-1.536-0.512 0-1.536-0.512-3.584-0.512h-1.024c-3.584-0.512-5.632-1.024-7.168-1.536-1.024-0.512-2.56-1.024-3.584-2.56-1.024-1.024-1.536-2.56-1.536-4.096 0-1.536 0.512-3.072 1.536-4.096 0.512-1.024 2.048-1.536 4.096-2.56 1.536-0.512 3.584-0.512 7.168-0.512 3.072 0 5.632 0 7.168 0.512 1.536 0.512 2.56 1.024 3.584 2.048 1.024 1.024 2.048 2.56 2.56 3.584l-9.216 1.024c0-1.024-0.512-1.536-1.024-2.048-1.024-0.512-2.048-0.512-3.072-0.512-1.024 0-1.536 0-2.56 0.512-0.512 0.512-1.024 1.024-1.024 1.536 0 0.512 0.512 1.024 1.024 1.536 0.512 0.512 1.536 0.512 3.584 1.024h0.512c3.072 0 5.12 0.512 7.168 1.536 1.536 0.512 2.56 1.536 3.584 2.56 1.024 1.024 1.536 2.56 1.536 4.096 0 1.536-0.512 3.072-1.536 4.096-1.024 1.536-2.56 2.56-4.096 3.072-2.048 0.512-4.608 1.024-7.68 1.024-4.608 0-8.192-0.512-10.24-2.048-1.536-2.048-2.56-3.584-3.584-6.144z m30.72 0l10.24-1.024c0.512 1.024 1.024 1.536 2.048 2.56 1.024 0.512 1.536 1.024 2.56 1.024s2.048-0.512 3.072-1.024c0.512-0.512 0.512-1.024 0.512-1.536 0-0.512-0.512-1.024-1.024-1.536-0.512 0-1.536-0.512-4.096-1.024h-0.512c-3.584-0.512-5.632-1.024-7.168-1.536-1.024-0.512-2.56-1.024-3.584-2.56-1.024-1.024-1.536-2.56-1.536-4.096s0.512-2.56 1.536-4.096c1.024-1.024 2.56-2.048 4.096-2.56 1.536-0.512 4.096-0.512 7.168-0.512 3.072 0 5.632 0 6.656 0.512 1.536 0.512 2.56 1.024 4.096 2.048 1.024 1.024 1.536 2.048 2.56 3.584l-9.216 1.024c-0.512-1.024-1.024-1.536-1.536-2.048-1.024-0.512-2.048-0.512-2.56-0.512-1.024 0-2.048 0-2.56 0.512-0.512 0.512-1.024 1.024-1.024 1.536 0 0.512 0.512 1.024 1.024 1.536 0.512 0 1.536 0.512 3.072 0.512h1.024c3.072 0 5.12 0.512 7.168 1.536 1.536 0.512 3.072 1.536 3.584 3.072 1.024 1.024 1.536 2.56 1.536 3.584s-0.512 2.56-1.536 4.096c-1.024 1.536-2.56 2.56-4.096 3.072-2.048 0.512-4.608 1.024-8.192 1.024-4.608 0-8.192-0.512-10.24-2.048-1.024-1.024-2.56-2.56-3.072-5.12z m-256.512 67.072h-14.336l-2.048 4.096h-12.8l15.36-25.088h13.312l15.36 25.088h-13.312l-1.536-4.096z m-2.56-5.632l-4.608-8.704-4.608 8.704h9.216z m21.504-15.36h20.48c4.096 0 7.68 0.512 9.728 2.048 2.048 1.536 3.584 3.072 3.584 5.632 0 2.56-1.024 4.608-3.584 6.144-2.56 1.536-6.144 2.048-11.264 2.048h-6.656v9.216h-12.288v-25.088z m12.288 10.752h3.072c2.56 0 4.096 0 5.12-0.512 1.024-0.512 1.536-1.024 1.536-2.048s-0.512-1.536-1.024-2.048c-0.512-0.512-2.56-0.512-4.608-0.512h-3.584v5.12z m28.16-10.752h20.48c4.608 0 7.68 0.512 10.24 2.048 2.048 1.536 3.584 3.072 3.584 5.632 0 2.56-1.024 4.608-3.584 6.144-2.56 1.536-6.144 2.048-11.264 2.048h-6.656v9.216h-12.8v-25.088z m12.288 10.752h3.072c2.048 0 4.096-0.512 5.12-1.024 1.024-0.512 1.536-1.024 1.536-2.048s-0.512-1.536-1.024-2.048c-1.024-0.512-2.56-0.512-4.608-0.512h-3.584v5.632z m26.112 6.144l11.776-0.512c0.512 1.536 1.024 2.048 1.536 2.56 1.536 1.024 3.072 1.536 5.12 1.536 1.536 0 3.072-0.512 4.096-1.024 1.024-0.512 1.536-1.024 1.536-1.536 0-0.512-0.512-1.536-1.536-2.048-1.536-0.512-3.584-1.024-6.656-1.536-5.632-1.024-9.728-2.048-11.776-3.072-2.56-1.536-3.584-3.072-3.584-4.608 0-1.024 0.512-2.048 2.048-3.584 1.536-1.024 3.072-2.048 5.12-3.072 2.56-0.512 6.144-1.024 10.24-1.024 5.12 0 9.216 0.512 11.776 1.536 2.56 1.024 4.096 3.072 4.608 5.632l-11.776 0.512c-0.512-1.024-1.024-2.048-2.048-2.56-1.024-0.512-2.56-0.512-4.096-0.512-1.536 0-2.56 0-3.072 0.512-0.512 0.512-1.024 1.024-1.024 1.536 0 0.512 0 1.024 0.512 1.024 1.024 0.512 2.048 1.024 4.096 1.024 5.632 0.512 9.216 1.536 11.776 2.048 2.56 0.512 4.096 1.536 5.12 2.56 1.024 1.024 1.536 2.56 1.536 3.584 0 1.536-0.512 3.072-2.048 4.608-1.536 1.536-3.584 2.56-6.144 3.072-2.56 0.512-5.632 1.024-9.728 1.024-6.656 0-11.264-1.024-14.336-2.56-1.024-0.512-2.56-2.56-3.072-5.12z" p-id="1417"></path></svg>